<?xml version="1.0" standalone="no"?><!DOCTYPE svg PUBLIC "-//W3C//DTD SVG 1.1//EN" "http://www.w3.org/Graphics/SVG/1.1/DTD/svg11.dtd"><svg t="1775207823331" class="icon" viewBox="0 0 1296 1024" version="1.1" xmlns="http://www.w3.org/2000/svg" p-id="4832" xmlns:xlink="http://www.w3.org/1999/xlink" width="253.125" height="200"><path d="M1279.095166 143.492058L652.203755 0.493755a21.696294 21.696294 0 0 0-9.204489 0L16.436587 143.492058a20.710099 20.710099 0 0 0 0 40.434003l244.08331 55.391297V345.662073c0 96.154031 199.540161 147.929279 387.410345 147.929279S1035.504953 442.144836 1035.504953 345.662073a10.848147 10.848147 0 0 0 0-2.301122v-104.043593l244.247676-55.391297a20.710099 20.710099 0 0 0 0-40.434003zM993.427292 345.662073c-0.986195 44.707515-131.492692 106.344715-345.168318 106.344715s-345.168318-62.130297-345.168318-106.673447V248.686212l341.387903 77.580689h4.602244a20.874465 20.874465 0 0 0 4.602244 0L1001.316853 247.042553l-7.889561 1.808025V345.662073z m-345.168318-60.486639L115.056106 163.544694l532.545404-120.973277 533.367234 120.973277z" fill="#1296db" p-id="4833"></path><path d="M1035.504953 351.086146a78.402518 78.402518 0 0 1-21.86066 47.008638 404.997493 404.997493 0 0 1 40.762735 157.298133h-139.382254a519.560501 519.560501 0 0 0-13.642367-95.989665c-12.656172 4.109147-25.969807 7.725196-39.77654 11.176879a501.973353 501.973353 0 0 1 11.998709 84.812786H668.311609V493.591352h-41.420198v61.472834H421.598445a470.908205 470.908205 0 0 1 12.163074-84.812787c-13.971099-3.451683-27.284734-7.067732-40.105271-11.176879a505.918134 505.918134 0 0 0-13.478001 95.989666H241.617822a402.203273 402.203273 0 0 1 40.762735-157.298134 78.402518 78.402518 0 0 1-21.86066-47.008637A444.938398 444.938398 0 0 0 199.704527 575.774285 448.390081 448.390081 0 0 0 647.60151 1024h5.424074A448.390081 448.390081 0 0 0 1095.498494 575.774285 446.582057 446.582057 0 0 0 1035.504953 351.086146z m-793.065301 246.548799h138.396059A497.699841 497.699841 0 0 0 419.790421 773.013323h-127.547912a403.025102 403.025102 0 0 1-50.624687-176.200208z m77.087591 217.620406h121.302008a526.956965 526.956965 0 0 0 133.958181 161.242914 405.983688 405.983688 0 0 1-256.082019-162.064744z m308.185998 149.408572a487.837889 487.837889 0 0 1-139.217889-149.408572h139.217889z m0-190.82877h-162.393476a460.224424 460.224424 0 0 1-43.885686-176.200208h205.457332z m41.420198-176.200208h204.471137A473.209327 473.209327 0 0 1 832.841841 773.013323h-164.365866z m0 372.946149v-156.147573h143.4914A473.86679 473.86679 0 0 1 668.311609 970.252362z m63.116492 4.109146a511.999671 511.999671 0 0 0 127.547912-159.434889h117.521594a407.956078 407.956078 0 0 1-245.891335 158.61306zM1002.63178 773.013323h-124.918058a519.067403 519.067403 0 0 0 37.146686-176.200208h138.72479A405.326225 405.326225 0 0 1 1002.63178 773.013323z" fill="#1296db" p-id="4834"></path><path d="M778.272374 625.084044L772.519568 282.052483a20.874465 20.874465 0 0 0-5.259707-13.313635L663.216268 150.066693a20.710099 20.710099 0 1 0-31.065149 27.284733l98.619519 112.91935 6.081537 334.813268a59.500443 59.500443 0 0 0-40.598368 56.377492v3.122952A59.829175 59.829175 0 0 0 756.082982 744.578029h2.958585a59.993541 59.993541 0 0 0 59.993541-59.829176v-3.122951A59.829175 59.829175 0 0 0 778.272374 625.084044z m0 59.664809a18.573343 18.573343 0 0 1-18.573343 18.408977H756.082982a18.408977 18.408977 0 0 1-18.408977-18.408977v-3.122951A18.408977 18.408977 0 0 1 756.082982 663.216925h2.958585a18.573343 18.573343 0 0 1 18.573343 18.408977z" fill="#1296db" p-id="4835"></path></svg>